<?xml version="1.0" encoding="UTF-8" standalone="no"?>
<svg
   xmlns:dc="http://purl.org/dc/elements/1.1/"
   xmlns:cc="http://creativecommons.org/ns#"
   xmlns:rdf="http://www.w3.org/1999/02/22-rdf-syntax-ns#"
   xmlns:svg="http://www.w3.org/2000/svg"
   xmlns="http://www.w3.org/2000/svg"
   xmlns:xlink="http://www.w3.org/1999/xlink"
   xmlns:sodipodi="http://sodipodi.sourceforge.net/DTD/sodipodi-0.dtd"
   xmlns:inkscape="http://www.inkscape.org/namespaces/inkscape"
   id="svg8"
   version="1.1"
   viewBox="0 0 58.137902 65.397264"
   height="65.397263mm"
   width="58.137901mm"
   sodipodi:docname="solve3-logo-small-shadow.svg"
   inkscape:version="0.92.5 (2060ec1f9f, 2020-04-08)">
  <sodipodi:namedview
     pagecolor="#ffffff"
     bordercolor="#666666"
     borderopacity="1"
     objecttolerance="10"
     gridtolerance="10"
     guidetolerance="10"
     inkscape:pageopacity="0"
     inkscape:pageshadow="2"
     inkscape:window-width="1920"
     inkscape:window-height="1125"
     id="namedview47"
     showgrid="false"
     inkscape:zoom="2.7005978"
     inkscape:cx="85.045922"
     inkscape:cy="115.5637"
     inkscape:window-x="0"
     inkscape:window-y="27"
     inkscape:window-maximized="1"
     inkscape:current-layer="svg8" />
  <defs
     id="defs2">
    <filter
       height="1.0744137"
       y="-0.03720681"
       width="1.0846444"
       x="-0.042322222"
       id="filter3775"
       style="color-interpolation-filters:sRGB">
      <feGaussianBlur
         id="feGaussianBlur3777"
         stdDeviation="5.6587428" />
    </filter>
    <linearGradient
       gradientUnits="userSpaceOnUse"
       y2="-2622.3672"
       x2="3145.8398"
       y1="-2977.9492"
       x1="4500.0508"
       id="linearGradient1887-3"
       xlink:href="#linearGradient1877"
       gradientTransform="matrix(0.03971254,0,0,0.03971254,-122.64429,120.06473)" />
    <linearGradient
       id="linearGradient1877">
      <stop
         id="stop1873"
         offset="0"
         style="stop-color:#65004c;stop-opacity:1" />
      <stop
         id="stop1875"
         offset="1"
         style="stop-color:#f751ff;stop-opacity:1" />
    </linearGradient>
    <linearGradient
       y2="-1904.4691"
       x2="4354.9194"
       y1="-2622.3672"
       x1="3145.8398"
       gradientTransform="matrix(0.03971254,0,0,0.03971254,-122.64429,120.06473)"
       gradientUnits="userSpaceOnUse"
       id="linearGradient1938-0"
       xlink:href="#linearGradient1934" />
    <linearGradient
       id="linearGradient1934">
      <stop
         id="stop1930"
         offset="0"
         style="stop-color:#001349;stop-opacity:1" />
      <stop
         id="stop1932"
         offset="1"
         style="stop-color:#00ace7;stop-opacity:1" />
    </linearGradient>
    <linearGradient
       gradientUnits="userSpaceOnUse"
       y2="-2168.1172"
       x2="3177.8086"
       y1="-1714.7585"
       x1="3753.1509"
       id="linearGradient1952-2"
       xlink:href="#linearGradient1950"
       gradientTransform="matrix(0.03971254,0,0,0.03971254,-122.64429,120.06473)" />
    <linearGradient
       id="linearGradient1950">
      <stop
         id="stop1946"
         offset="0"
         style="stop-color:#bc1a00;stop-opacity:1" />
      <stop
         id="stop1948"
         offset="1"
         style="stop-color:#ff9800;stop-opacity:1" />
    </linearGradient>
    <linearGradient
       gradientUnits="userSpaceOnUse"
       y2="-1410.5137"
       x2="3544.4102"
       y1="-2137.6643"
       x1="4354.9194"
       id="linearGradient1936-7"
       xlink:href="#linearGradient1944"
       gradientTransform="matrix(0.03971254,0,0,0.03971254,-122.64429,120.06473)" />
    <linearGradient
       id="linearGradient1944">
      <stop
         style="stop-color:#004936;stop-opacity:1"
         offset="0"
         id="stop1940" />
      <stop
         style="stop-color:#0dc900;stop-opacity:1"
         offset="1"
         id="stop1942" />
    </linearGradient>
    <linearGradient
       gradientUnits="userSpaceOnUse"
       y2="-2346.8828"
       x2="4500.0508"
       y1="-2741.7788"
       x1="3789.4922"
       id="linearGradient1879-5"
       xlink:href="#linearGradient1899"
       gradientTransform="matrix(0.03971254,0,0,0.03971254,-122.64429,120.06473)" />
    <linearGradient
       id="linearGradient1899">
      <stop
         id="stop1895"
         offset="0"
         style="stop-color:#6d0000;stop-opacity:1" />
      <stop
         id="stop1897"
         offset="1"
         style="stop-color:#ff4100;stop-opacity:1" />
    </linearGradient>
    <filter
       height="1.0293143"
       y="-0.014657132"
       width="1.033345"
       x="-0.016672514"
       id="filter3811"
       style="color-interpolation-filters:sRGB">
      <feGaussianBlur
         id="feGaussianBlur3813"
         stdDeviation="9.5725722" />
    </filter>
    <filter
       inkscape:collect="always"
       style="color-interpolation-filters:sRGB"
       id="filter1728"
       x="-0.050017542"
       width="1.1000351"
       y="-0.043971396"
       height="1.0879428">
      <feGaussianBlur
         inkscape:collect="always"
         stdDeviation="28.717716"
         id="feGaussianBlur1730" />
    </filter>
  </defs>
  <metadata
     id="metadata5">
    <rdf:RDF>
      <cc:Work
         rdf:about="">
        <dc:format>image/svg+xml</dc:format>
        <dc:type
           rdf:resource="http://purl.org/dc/dcmitype/StillImage" />
        <dc:title></dc:title>
      </cc:Work>
    </rdf:RDF>
  </metadata>
  <g
     id="g1748">
    <path
       inkscape:connector-curvature="0"
       transform="matrix(0.03971254,0,0,0.03971254,-0.00929856,0.10097399)"
       id="path1746"
       d="m 727.80099,45.390741 c 0,0 -1.1362,0.1323 -1.6328,0.1875 -0.5828,0.064 -0.8431,0.091 -2.1758,0.2519 -0.5374,0.065 -1.3042,0.1664 -1.9531,0.2481 -0.8674,0.1092 -1.7204,0.2156 -2.7832,0.3554 -0.771,0.1013 -1.7296,0.2333 -2.6016,0.3516 -1.1954,0.1621 -2.4162,0.33 -3.7968,0.5254 -1.1486,0.1625 -2.474,0.3583 -3.7481,0.5449 -1.4343,0.2102 -2.89,0.4241 -4.4805,0.666 -1.4048,0.214 -2.9468,0.4596 -4.4707,0.6993 -1.7147,0.2694 -3.4788,0.5498 -5.3418,0.8535 -1.6883,0.2751 -3.4833,0.5765 -5.291,0.8808 -1.9992,0.3368 -4.0635,0.6909 -6.2051,1.0645 -1.9144,0.3341 -3.9038,0.6901 -5.9296,1.0547 -2.2738,0.4092 -4.634,0.8439 -7.045,1.2929 -2.184,0.4069 -4.4131,0.8289 -6.707,1.2696 -2.397,0.4604 -4.8938,0.9527 -7.4082,1.4511 -3.2812,0.6508 -6.5556,1.2977 -10.0312,2.0157 -0.4258,0.088 -0.8409,0.1729 -1.2696,0.2617 -1.5406,0.3197 -3.1219,0.653 -4.6992,0.9863 -1.3023,0.2752 -2.6026,0.5514 -3.9297,0.836 -1.4185,0.3042 -2.8604,0.6167 -4.3066,0.9316 -1.3285,0.2891 -2.6639,0.5804 -4.0157,0.8789 -1.5882,0.3507 -3.1984,0.7105 -4.8183,1.0742 -1.3407,0.3009 -2.6906,0.606 -4.0527,0.916 -1.6583,0.3776 -3.3319,0.7614 -5.0215,1.1524 -1.2503,0.2891 -2.5141,0.586 -3.7813,0.8828 -1.9071,0.4467 -3.8266,0.8974 -5.7715,1.3613 -1.1546,0.2755 -2.3225,0.5582 -3.4902,0.8399 -1.9517,0.4704 -3.9145,0.9456 -5.9023,1.4336 -1.3661,0.3352 -2.7518,0.6816 -4.1348,1.0253 -1.8831,0.4679 -3.7677,0.9364 -5.6816,1.42 -1.3335,0.3367 -2.691,0.6867 -4.0391,1.0312 -2.0798,0.5316 -4.1571,1.0613 -6.2715,1.6113 -1.1723,0.3051 -2.3681,0.6231 -3.5508,0.9336 -2.2687,0.5961 -4.5352,1.1912 -6.8418,1.8086 -0.9416,0.2521 -1.9057,0.5159 -2.8535,0.7715 -2.6159,0.7056 -5.2339,1.4132 -7.8965,2.1465 -6.8503,1.8867 -13.8584,3.8688 -21.0058,5.9453 -0.1584,0.046 -0.3122,0.089 -0.4707,0.1348 -2.8714,0.8352 -5.784,1.6997 -8.7012,2.5664 -0.8431,0.2506 -1.6726,0.491 -2.5195,0.7441 -2.6358,0.788 -5.3088,1.604 -7.9805,2.418 -1.2487,0.3804 -2.4859,0.7505 -3.7422,1.1367 -2.3405,0.7195 -4.7114,1.4636 -7.0781,2.2031 -1.657,0.5178 -3.307,1.0289 -4.9766,1.5567 -2.252,0.7119 -4.5282,1.4436 -6.8027,2.173799 -1.7345,0.5569 -3.4655,1.1121 -5.2129,1.6797 -2.3083,0.7499 -4.6364,1.5161 -6.9668,2.2851 -1.8043,0.5953 -3.6086,1.1921 -5.4258,1.7989 -2.3538,0.786 -4.7227,1.5869 -7.0976,2.3926 -1.7096,0.5798 -3.4222,1.1619 -5.1426,1.7519 -2.5263,0.8665 -5.0662,1.7461 -7.6153,2.6348 -1.6422,0.5725 -3.2899,1.1485 -4.9414,1.7304 -2.5883,0.912 -5.1862,1.8346 -7.7968,2.7696 -1.7475,0.6258 -3.5025,1.2601 -5.2598,1.8965 -2.4427,0.8844 -4.8923,1.7746 -7.3535,2.6796 -2.0539,0.7552 -4.1192,1.5235 -6.1856,2.293 -2.2882,0.8521 -4.5758,1.7063 -6.8789,2.5762 -2.0104,0.7593 -4.035,1.5338 -6.0566,2.3066 -2.5041,0.9575 -5.0066,1.9141 -7.5274,2.8926 -1.7613,0.6837 -3.5354,1.386 -5.3046,2.0801 -2.7293,1.0708 -5.4574,2.1386 -8.2051,3.2344 -1.5294,0.6099 -3.0725,1.2397 -4.6074,1.8574 -3.0206,1.2156 -6.0386,2.4277 -9.0801,3.6738 -1.2532,0.5135 -2.5187,1.0458 -3.7754,1.5645 -3.2349,1.3352 -6.4695,2.669 -9.7266,4.039 -1.2165,0.5117 -2.4465,1.0439 -3.666,1.5606 -7.3695,3.1217 -14.7852,6.3233 -22.2578,9.6269 -0.4037,0.1784 -0.803,0.3504 -1.207,0.5293 -2.8431,1.2599 -5.7056,2.5551 -8.5625,3.8418 -1.9465,0.8766 -3.8854,1.7417 -5.8379,2.6309 -2.5776,1.1738 -5.1699,2.3763 -7.7578,3.5722 -2.1071,0.9737 -4.2106,1.9393 -6.3243,2.9278 -2.7677,1.2943 -5.5476,2.6158 -8.3261,3.9355 -1.9735,0.9374 -3.9432,1.8701 -5.9219,2.8203 -2.746,1.3189 -5.5021,2.6619 -8.2578,4.0059 -2.0655,1.0074 -4.1306,2.0135 -6.2012,3.0352 -2.6842,1.3243 -5.376,2.6691 -8.0683,4.0175 -2.1591,1.0814 -4.3185,2.1649 -6.4825,3.2618 -2.6391,1.3376 -5.2836,2.6916 -7.9297,4.0527 -2.2578,1.1613 -4.5167,2.3293 -6.7793,3.5078 -8.355,4.3517 -16.7358,8.801 -25.1484,13.3906 -0.034,0.019 -0.069,0.038 -0.1035,0.057 -4.5736,2.4956 -9.1567,5.0303 -13.7441,7.5976 -0.2601,0.1455 -0.5195,0.2899 -0.7793,0.4356 -4.5503,2.5501 -9.1064,5.1361 -13.668,7.7578 -0.2052,0.1179 -0.4098,0.2371 -0.6152,0.3554 -4.519,2.6001 -9.0443,5.2351 -13.5723,7.9063 -0.3417,0.2014 -0.6836,0.4035 -1.0254,0.6055 -4.5638,2.6975 -9.1305,5.4303 -13.7012,8.2011 -0.1886,0.1146 -0.3776,0.2293 -0.5664,0.3438 -2.2291,1.3527 -4.4591,2.7117 -6.6894,4.082 -0.067,0.041 -0.1339,0.084 -0.2012,0.125 -2.3413,1.4391 -4.683,2.8871 -7.0254,4.3457 -0.019,0.011 -0.034,0.024 -0.053,0.035 -2.3825,1.4837 -4.7652,2.9765 -7.1485,4.4804 -9.5938,6.0544 -19.1944,12.2749 -28.789,18.6641 -2.2509,1.4989 -4.5017,3.0098 -6.752,4.5274 -0.1478,0.1001 -0.2955,0.197 -0.4433,0.2968 l -0.02,0.016 -62.878904,45.082 c 0,0 -0.1671,1.2376 -0.3945,3.1211 -0.042,0.3526 -0.097,0.8308 -0.1445,1.2441 -0.091,0.7864 -0.1884,1.6528 -0.2969,2.6563 -0.054,0.5042 -0.1137,1.0918 -0.1719,1.6504 -0.1198,1.151 -0.2464,2.435 -0.3789,3.8144 -0.07,0.7298 -0.1423,1.5018 -0.2148,2.2949 -0.1316,1.4353 -0.2683,3.0188 -0.4063,4.6602 -0.077,0.9225 -0.1558,1.8467 -0.2344,2.834 -0.15,1.8867 -0.3005,3.9549 -0.4511,6.0761 -0.069,0.9641 -0.1371,1.8785 -0.2051,2.8907 -0.1758,2.6148 -0.3481,5.443 -0.5156,8.3769 -0.039,0.6788 -0.079,1.2867 -0.1172,1.9824 -0.2083,3.7989 -0.4075,7.8339 -0.5879,12.1348 v 0.1504 c -0.1743,4.1688 -0.3315,8.5971 -0.4668,13.2305 -0.1006,3.4406 -0.1845,7.0187 -0.2578,10.7129 -0.019,1.0207 -0.041,2.0498 -0.059,3.0898 -0.066,3.8695 -0.1159,7.8637 -0.1465,11.9981 -0.011,1.051 -0.012,2.1349 -0.016,3.2031 -0.023,4.3336 -0.03,8.7651 0,13.3769 0,0.011 -10e-5,0.01 0,0.014 0.019,3.094 0.044,6.2485 0.084,9.4668 0.039,3.1647 0.091,6.3937 0.1542,9.6777 0,0.254 0.012,0.515 0.016,0.7696 0.06,3.0321 0.1293,6.1116 0.2109,9.2441 0.011,0.3877 0.022,0.7827 0.033,1.1719 0.08,2.9608 0.1694,5.9646 0.2695,9.0137 0.019,0.6117 0.043,1.2283 0.062,1.8437 0.095,2.7815 0.1995,5.6053 0.3125,8.459 0.034,0.8844 0.069,1.7689 0.1055,2.6601 0.1134,2.7476 0.238,5.5346 0.3692,8.3477 0.041,0.887 0.08,1.7665 0.123,2.6602 0.1546,3.2052 0.3236,6.4537 0.502,9.7421 0.023,0.4413 0.044,0.8736 0.068,1.3165 0.088,1.6084 0.1912,3.2672 0.2852,4.8945 0,0 -0.01,0 -0.01,0.01 0.1319,2.282 0.2562,4.5419 0.4003,6.8633 0.251,4.0376 0.5206,8.1357 0.8086,12.2891 0,0.034 8e-4,0.068 0.012,0.1035 v 0.021 l 12.0605,118.2012 c 0.8811,6.6313 1.7941,13.3253 2.7676,20.1386 0,0 0.01,0 0.01,-0.01 0,0 0,0 0,0 0,0 -0.01,0.01 -0.01,0.01 0.043,0.3012 0.09,0.6105 0.1328,0.9121 243.149504,80.2533 475.767304,166.1818 686.754004,269.8691 0,0 0,0 0,0 54.0245,26.5499 106.6215,54.27406 157.6231,83.35546 -0.032,0.053 -0.062,0.1069 -0.094,0.1602 -0.2414,-0.134 -0.4832,-0.2726 -0.7246,-0.4063 0,0 -2.7718,5.5308 -7.4121,13.7891 -24.5701,39.3347 -53.4912,76.4255 -84.5723,110.8945 -344.1366,-103.1495 -347.1042,-102.2587 -718.535104,-302.03906 0.2311,1.1424 0.4364,2.1266 0.6582,3.211 -0.645,-0.3469 -1.179,-0.6324 -1.8262,-0.9805 9.3836,46.3754 10.805604,43.7163 24.718704,95.8906 0,0 50.7604,215.69096 302.5938,443.95896 12.6903,11.1945 25.7726,22.2454 39.2891,33.1133 39.2729,33.9531 79.5768,64.1923 116.75,89.9297 46.8906,32.2515 98.405,64.0195 155.0019,94.7109 0.01,0 0.014,-0.01 0.021,-0.012 0,0 8e-4,-0.012 0.037,-0.012 197.7346,-85.6529 340.73921,-233.0523 418.66801,-327.3711 23.1016,-26.5559 43.6106,-52.4416 61.7773,-77.2891 0.3669,-0.4458 0.7404,-0.8921 1.1055,-1.3379 1.6302,-2.2373 3.2395,-4.4655 4.832,-6.6855 0.3688,-0.5141 0.7289,-1.0239 1.0957,-1.5371 1.2103,-1.6934 2.415,-3.3835 3.6035,-5.0664 0.5149,-0.729 1.0205,-1.4528 1.5313,-2.1797 1.0033,-1.428 2.0044,-2.8552 2.9922,-4.2754 0.578,-0.8311 1.148,-1.658 1.7207,-2.4863 0.9388,-1.3579 1.8742,-2.714 2.7988,-4.0645 0.5623,-0.8212 1.1187,-1.6386 1.6758,-2.457 0.862,-1.2666 1.7207,-2.5312 2.5703,-3.791 0.6956,-1.0316 1.3849,-2.059 2.0723,-3.086 0.51,-0.762 1.0159,-1.5217 1.5214,-2.2812 2.3635,-3.5509 4.6801,-7.0749 6.9454,-10.5684 0.3514,-0.5419 0.6977,-1.0805 1.0468,-1.6211 2.2288,-3.4512 4.4183,-6.8792 6.5528,-10.2714 0.3334,-0.5299 0.6591,-1.0537 0.9902,-1.5821 2.2038,-3.5166 4.3704,-7.0091 6.4746,-10.459 0.079,-0.1291 0.1519,-0.2538 0.2305,-0.3828 1.9966,-3.2766 3.9392,-6.5166 5.8476,-9.7304 0.3364,-0.5664 0.68,-1.1368 1.0137,-1.7012 1.59,-2.6898 3.1271,-5.3407 4.6563,-7.9844 1.4765,-2.5524 2.9131,-5.0718 4.3339,-7.5801 0.7087,-1.2513 1.4281,-2.5099 2.1231,-3.75 1.5593,-2.7818 3.0692,-5.5219 4.5605,-8.2461 0.4847,-0.8855 0.9853,-1.7847 1.4629,-2.664 1.9395,-3.5702 3.8261,-7.0913 5.6504,-10.5567 0,-0.01 0.01,-0.016 0.012,-0.023 7.659,-14.549 14.3049,-28.1383 20.0703,-40.6582 0.07,-0.152 0.1373,-0.2995 0.2071,-0.4512 22.0993,-48.06856 31.0408,-80.04626 32.9844,-87.53506 0.2721,-1.1868 0.4238,-1.8848 0.4238,-1.8848 13.5749,-50.9055 24.7774,-99.1124 34.0312,-144.502 0.2268,-1.577 0.4613,-3.1416 0.6797,-4.7265 0,0 -366.081,-240.4936 -820.11911,-389.6836 l -22.7188,-8.0137 c 65.7137,-22.8917 135.9656,-41.0648 209.5801,-51.1523 3.7265,-0.5096 7.4227,-1.0045 11.1367,-1.5078 7.0684,2.4483 14.1469,4.96 21.2344,7.5214 l 80.0859,31.0196 c 244.97021,100.9273 480.88061,250.3358 541.78911,293.1504 0.071,-0.4831 0.1369,-0.9573 0.207,-1.4395 0.6612,0.4613 1.4497,1.0004 2.0743,1.4395 2.9178,-19.9497 5.1999,-46.3467 7.0878,-73.4063 19.5434,-179.191 5.211,-279.8945 5.211,-279.8945 0,0 -0.01,0 -0.01,-0.01 0.01,0 0.013,0 0.02,0 -5.4967,-4.1849 -11.0038,-8.3056 -16.5176,-12.3711 -0.1255,-0.093 -0.2514,-0.1829 -0.3769,-0.2754 -2.5434,-1.8739 -5.0884,-3.7351 -7.6348,-5.5839 -0.3464,-0.2515 -0.6926,-0.501 -1.0391,-0.752 -2.2857,-1.6563 -4.5734,-3.3033 -6.8613,-4.9394 -0.6237,-0.4461 -1.2472,-0.8895 -1.8711,-1.334 -2.1235,-1.5132 -4.2479,-3.0196 -6.373,-4.5157 -0.53,-0.373 -1.0598,-0.7451 -1.5899,-1.1171 -2.239,-1.5715 -4.4783,-3.1331 -6.7187,-4.6856 -0.4556,-0.3157 -0.9115,-0.6304 -1.3672,-0.9453 -2.3261,-1.6077 -4.6513,-3.2056 -6.9785,-4.793 -0.3678,-0.2508 -0.7357,-0.5016 -1.1035,-0.7519 -2.4443,-1.6638 -4.8888,-3.3174 -7.334,-4.959 -0.2563,-0.172 -0.5133,-0.3439 -0.7696,-0.5156 -2.6781,-1.7953 -5.3563,-3.5788 -8.0351,-5.3477 -0.053,-0.035 -0.1067,-0.07 -0.1602,-0.1055 -38.0026,-25.0869 -76.0439,-47.504 -113.5293,-67.5625 -1.7986,-0.9623 -3.5946,-1.9177 -5.3906,-2.8691 -3.5154,-1.8625 -7.0249,-3.7044 -10.5293,-5.5254 -1.5732,-0.8174 -3.1459,-1.6304 -4.7168,-2.4394 -3.8741,-1.9957 -7.7388,-3.9647 -11.5976,-5.9102 -1.2021,-0.606 -2.405,-1.2133 -3.6055,-1.8144 -5.0428,-2.5255 -10.0708,-5.0099 -15.084,-7.4512 -0.061,-0.03 -0.121,-0.058 -0.1816,-0.088 C 932.51789,66.617041 728.32829,45.436841 727.86309,45.388741 h -0.061 z"
       style="fill:#000000;fill-opacity:1;stroke:none;stroke-width:0.99999994px;stroke-linecap:butt;stroke-linejoin:miter;stroke-opacity:1;filter:url(#filter1728)" />
    <path
       inkscape:connector-curvature="0"
       id="path1746-8"
       d="m 50.851596,11.190172 c -0.789063,0.0023 -1.318431,0.03498 -1.318431,0.03498 L 27.869749,13.28842 c 11.604522,3.541251 24.711628,11.799868 27.639074,13.857664 1.306409,-8.932446 0.579005,-14.030474 0.579005,-14.030474 -0.830429,-0.632258 -1.666366,-1.229725 -2.503594,-1.794665 -0.991195,-0.107382 -1.980033,-0.133021 -2.732638,-0.130773 z"
       style="fill:url(#linearGradient1879-5);fill-opacity:1;stroke:none;stroke-width:0.03971254px;stroke-linecap:butt;stroke-linejoin:miter;stroke-opacity:1" />
    <path
       inkscape:connector-curvature="0"
       id="path1754-60"
       d="m 38.206572,35.180967 c -2.859303,12.549166 -20.069655,21.544447 -20.069655,21.544447 1.559618,1.348363 3.160198,2.549239 4.636439,3.571337 1.862149,1.280788 3.907909,2.542377 6.15552,3.761205 0,0 0,-4.5e-4 0.0015,-4.5e-4 C 39.747744,59.00864 46.919972,50.155702 50.135254,44.791415 50.260793,44.56742 50.324959,44.441758 50.324959,44.441758 48.657032,42.614986 38.207217,35.180981 38.207217,35.180981 Z"
       style="fill:url(#linearGradient1936-7);fill-opacity:1;stroke:none;stroke-width:0.03971254px;stroke-linecap:butt;stroke-linejoin:miter;stroke-opacity:1" />
    <path
       inkscape:connector-curvature="0"
       id="path1756-0"
       d="m 3.578231,33.971598 c 0.372655,1.841685 0.4291206,1.736086 0.9816476,3.80806 0,0 2.0158176,8.565639 12.0167594,17.630742 0.503973,0.444562 1.023495,0.883421 1.560279,1.315014 C 29.25203,50.888556 32.126283,45.970296 32.126283,45.970296 18.445797,41.869742 18.333736,41.908095 3.578231,33.971598 Z"
       style="fill:url(#linearGradient1952-2);fill-opacity:1;stroke:none;stroke-width:0.03971254px;stroke-linecap:butt;stroke-linejoin:miter;stroke-opacity:1" />
    <path
       inkscape:connector-curvature="0"
       id="path1750-6"
       d="m 20.723616,15.937529 c 0,0 -10.800152,3.913933 -18.416463,10.934832 0.0016,0.01196 0.0036,0.02425 0.0053,0.03622 17.16637,5.665892 33.010981,12.044084 45.056902,21.830808 0.237465,-0.268341 0.465579,-0.537108 0.685437,-0.805572 3.914123,-5.37186 5.077372,-9.504449 5.225215,-10.074112 0.01081,-0.04713 0.01684,-0.07485 0.01684,-0.07485 0.539095,-2.021587 0.983975,-3.936001 1.351467,-5.738535 0.009,-0.06263 0.01831,-0.124767 0.02699,-0.187706 0,0 -15.286765,-10.043628 -33.951669,-15.921084 z"
       style="fill:url(#linearGradient1938-0);fill-opacity:1;stroke:none;stroke-width:0.03971254px;stroke-linecap:butt;stroke-linejoin:miter;stroke-opacity:1" />
    <path
       sodipodi:nodetypes="cccccccc"
       inkscape:connector-curvature="0"
       id="path1750-2-4"
       d="m 11.009359,20.598788 c -2.884293,1.674429 -5.9943305,3.777418 -8.7021716,6.273575 0.00165,0.01196 0.0036,0.02424 0.00525,0.03622 17.1663856,5.66589 33.0110416,12.044084 45.0569476,21.830808 0.237465,-0.268341 0.465534,-0.537113 0.685407,-0.805574 2.132905,-2.927279 3.447659,-5.48477 4.227671,-7.300051 C 41.017397,31.853281 26.622236,25.868554 11.009344,20.598788 Z"
       style="fill:#ffffff;fill-opacity:0.09865471;stroke:none;stroke-width:0.03971254px;stroke-linecap:butt;stroke-linejoin:miter;stroke-opacity:1" />
    <path
       inkscape:connector-curvature="0"
       id="path1754-6-3"
       d="m 42.73847,45.2221 c -3.7744,5.989702 -7.986597,8.735866 -19.393446,15.461832 1.707462,1.147625 3.564223,2.277902 5.584648,3.373548 0,0 7.5e-5,-4.5e-4 0.0015,-4.5e-4 C 38.717119,59.818042 45.131564,51.767562 47.369355,48.739389 44.510367,46.552242 42.73847,45.222101 42.73847,45.222101 Z"
       style="fill:#ffffff;fill-opacity:0.161435;stroke:none;stroke-width:0.03971254px;stroke-linecap:butt;stroke-linejoin:miter;stroke-opacity:1" />
    <path
       inkscape:connector-curvature="0"
       id="path1756-1-7"
       d="m 3.6246103,33.883049 c 0.372655,1.841686 0.4291206,1.736091 0.9816475,3.808065 0,0 0.2624705,1.114728 1.0671144,2.965024 10.5157508,5.620278 10.2065408,8.005718 20.5429298,11.107801 4.286437,-3.096963 5.956345,-5.882191 5.956345,-5.882191 C 18.492176,41.781193 18.380115,41.819549 3.6246103,33.883049 Z"
       style="fill:#ffffff;fill-opacity:0.13452914;stroke:none;stroke-width:0.03971254px;stroke-linecap:butt;stroke-linejoin:miter;stroke-opacity:1" />
    <path
       inkscape:connector-curvature="0"
       id="path1746-5-5"
       d="m 38.565538,12.278391 -10.605192,1.010034 c 11.604522,3.54125 24.711628,11.799863 27.639074,13.857659 0.290478,-1.986034 0.423822,-5.578444 0.543568,-7.171486 -3.607765,-2.309482 -10.349717,-4.536573 -17.57745,-7.696207 z"
       style="fill:#ffffff;fill-opacity:0.103139;stroke:none;stroke-width:0.03971254px;stroke-linecap:butt;stroke-linejoin:miter;stroke-opacity:1" />
    <path
       inkscape:connector-curvature="0"
       id="path1748-8"
       d="m 28.92652,1.8109691 c 0,0 -0.04512,0.00525 -0.06484,0.00744 -0.02314,0.00254 -0.03349,0.00362 -0.08641,0.01 -0.02134,0.00258 -0.0518,0.0066 -0.07757,0.00985 -0.03445,0.00434 -0.06825,0.00857 -0.110455,0.014124 -0.03062,0.00402 -0.06876,0.00926 -0.103385,0.013959 -0.04748,0.00644 -0.09596,0.013103 -0.150785,0.020865 -0.04561,0.00645 -0.09818,0.014229 -0.148774,0.021639 -0.05696,0.00835 -0.114838,0.016842 -0.177997,0.026448 -0.05579,0.0085 -0.117029,0.018256 -0.177547,0.027772 -0.0681,0.010702 -0.138087,0.021834 -0.212069,0.033894 -0.06705,0.010927 -0.138402,0.022891 -0.210182,0.034978 -0.0794,0.013373 -0.161382,0.027439 -0.246425,0.042274 -0.07604,0.013268 -0.155033,0.027406 -0.235484,0.041885 -0.0903,0.016251 -0.184031,0.03351 -0.279776,0.051344 -0.08673,0.016159 -0.175251,0.032917 -0.266343,0.050418 -0.09519,0.018285 -0.194358,0.037831 -0.294201,0.057627 -0.130312,0.025845 -0.260339,0.051535 -0.398366,0.080048 -0.01691,0.0035 -0.0334,0.00686 -0.05042,0.010387 -0.06118,0.012698 -0.123993,0.025933 -0.186627,0.039169 -0.05171,0.010927 -0.103355,0.021897 -0.156054,0.033199 -0.05633,0.012083 -0.113591,0.024491 -0.171033,0.036997 -0.05276,0.011482 -0.105786,0.023049 -0.15946,0.034903 -0.06309,0.013929 -0.127025,0.028216 -0.191356,0.04266 -0.05324,0.011947 -0.106852,0.024065 -0.160946,0.036377 -0.06585,0.014994 -0.132309,0.030237 -0.199416,0.045764 -0.04965,0.011482 -0.09983,0.023272 -0.150155,0.035059 -0.07574,0.017738 -0.151971,0.035637 -0.229209,0.05406 -0.04585,0.010942 -0.09223,0.022172 -0.138598,0.033356 -0.07751,0.018684 -0.155468,0.037552 -0.234402,0.056931 -0.05424,0.013313 -0.109284,0.027073 -0.164204,0.040722 -0.07478,0.01858 -0.149614,0.037183 -0.225622,0.056388 -0.05295,0.013373 -0.106868,0.027271 -0.160406,0.040952 -0.0826,0.021111 -0.16509,0.042147 -0.249053,0.063988 -0.04656,0.012113 -0.09405,0.024742 -0.141013,0.037075 -0.0901,0.02367 -0.180114,0.047307 -0.271702,0.071825 -0.0374,0.010011 -0.07569,0.020488 -0.113321,0.030639 -0.103896,0.028021 -0.207851,0.056122 -0.313593,0.085242 -0.272047,0.074926 -0.550352,0.1536399 -0.834196,0.2361034 -0.0063,0.00183 -0.01246,0.00354 -0.0187,0.00536 -0.114027,0.033168 -0.22969,0.067499 -0.345548,0.1019188 -0.03347,0.00995 -0.06642,0.019499 -0.100053,0.029551 -0.104676,0.031293 -0.210823,0.063699 -0.316925,0.096025 -0.04959,0.015107 -0.09872,0.029804 -0.148608,0.045141 -0.09294,0.028574 -0.187108,0.058123 -0.281098,0.08749 -0.0658,0.020563 -0.131317,0.04086 -0.197629,0.061821 -0.08943,0.028272 -0.179829,0.057329 -0.270156,0.086325 -0.06888,0.022118 -0.137621,0.044165 -0.20701,0.066707 -0.09166,0.02978 -0.184121,0.060212 -0.27667,0.090752 -0.07165,0.023639 -0.14331,0.047335 -0.215476,0.071435 -0.09346,0.031214 -0.187543,0.063022 -0.281862,0.095016 -0.06789,0.023026 -0.135896,0.046142 -0.204219,0.069572 -0.100338,0.034412 -0.201187,0.069342 -0.302426,0.1046355 -0.06522,0.022733 -0.130642,0.045614 -0.196233,0.068721 -0.102785,0.036216 -0.20596,0.072854 -0.309631,0.1099864 -0.0694,0.02485 -0.139092,0.050044 -0.208886,0.075314 -0.09701,0.035124 -0.194283,0.070475 -0.292025,0.1064156 -0.08156,0.029987 -0.163573,0.0605 -0.245645,0.091058 -0.09087,0.033839 -0.181719,0.067762 -0.273172,0.102306 -0.07984,0.030156 -0.160241,0.060908 -0.240526,0.091603 -0.09945,0.038025 -0.198831,0.076012 -0.298929,0.1148719 -0.06994,0.027151 -0.140414,0.055041 -0.210673,0.082606 -0.108383,0.042523 -0.216721,0.084928 -0.32584,0.128445 -0.06073,0.024222 -0.122012,0.049234 -0.182966,0.073762 -0.119955,0.048275 -0.239806,0.096412 -0.360602,0.145898 -0.04976,0.020392 -0.100023,0.04153 -0.14993,0.06213 -0.128466,0.053024 -0.256917,0.1059923 -0.386253,0.1603986 -0.04832,0.020321 -0.09717,0.041459 -0.145592,0.061974 -0.29267,0.1239752 -0.58717,0.2511144 -0.883922,0.3823091 -0.01603,0.00708 -0.03188,0.013914 -0.04793,0.021021 -0.112916,0.050033 -0.226582,0.1014699 -0.340039,0.1525667 -0.0773,0.034813 -0.154297,0.069167 -0.231836,0.1044794 -0.102365,0.046616 -0.205315,0.094372 -0.308084,0.1418664 -0.08368,0.038666 -0.167206,0.077011 -0.251155,0.1162663 -0.109915,0.0514 -0.220309,0.1038805 -0.330659,0.1562891 -0.07836,0.037227 -0.156594,0.074262 -0.235168,0.1120006 -0.109057,0.052377 -0.218508,0.1057117 -0.327942,0.1590853 -0.08203,0.040006 -0.164023,0.079961 -0.24626,0.120535 -0.106597,0.052592 -0.213495,0.1059969 -0.320422,0.1595447 -0.08573,0.042942 -0.171484,0.085974 -0.257428,0.1295346 -0.104811,0.05312 -0.209817,0.1068899 -0.314913,0.1609435 -0.08965,0.046118 -0.1793634,0.092502 -0.2692101,0.1393029 -0.3317992,0.1728175 -0.6646341,0.3495104 -0.9987148,0.5317748 -0.0015,7.505e-4 -0.0027,0.00152 -0.00405,0.00227 -0.1816265,0.099108 -0.3636328,0.199767 -0.5458177,0.3017203 -0.010357,0.00578 -0.020623,0.011512 -0.030935,0.017298 -0.180714,0.1012719 -0.3616366,0.2039681 -0.5428008,0.3080828 -0.00811,0.00468 -0.01627,0.00943 -0.02442,0.014124 -0.1794682,0.1032561 -0.3591765,0.2078946 -0.5389914,0.3139755 -0.013508,0.008 -0.027151,0.016024 -0.040736,0.024045 C 6.9191728,9.640721 6.7378285,9.7492469 6.556319,9.8592828 c -0.0075,0.00455 -0.015009,0.00911 -0.022499,0.013659 -0.088524,0.053719 -0.1770816,0.1076885 -0.2656525,0.1621062 -0.0027,0.0016 -0.00525,0.0033 -0.00795,0.005 -0.092984,0.05715 -0.1859673,0.114653 -0.2789959,0.172579 0,4.5e-4 -0.0015,9.01e-4 -0.0021,0.0014 -0.09462,0.05892 -0.1892393,0.118204 -0.283874,0.177931 -0.3810017,0.240432 -0.7622722,0.487467 -1.1433024,0.741199 -0.08938,0.05952 -0.1787613,0.119523 -0.2681276,0.179791 -0.00585,0.004 -0.011707,0.0078 -0.017606,0.0118 l -0.0015,6.01e-4 -2.4970796,1.79032 c 0,0 -0.0066,0.04915 -0.01567,0.123948 -0.00165,0.014 -0.0039,0.03299 -0.0057,0.04941 -0.0036,0.03123 -0.0075,0.06564 -0.011858,0.10549 -0.0021,0.02002 -0.0045,0.04336 -0.00675,0.06554 -0.0048,0.04571 -0.00976,0.0967 -0.015054,0.15148 -0.0027,0.02898 -0.0057,0.05964 -0.00856,0.09114 -0.00525,0.057 -0.010657,0.119885 -0.016135,0.18507 -0.003,0.03663 -0.00615,0.07334 -0.00931,0.112544 -0.006,0.07493 -0.012008,0.157059 -0.017906,0.241298 -0.0027,0.03828 -0.0054,0.0746 -0.00811,0.114797 -0.0069,0.10384 -0.013809,0.216155 -0.020473,0.332668 -0.0015,0.02696 -0.00315,0.0511 -0.00465,0.07873 -0.00826,0.150863 -0.016195,0.311104 -0.023355,0.481903 0,0.0019 0,0.0041 0,0.006 -0.0069,0.165554 -0.013208,0.341413 -0.018537,0.525417 -0.00405,0.136635 -0.00735,0.278731 -0.010206,0.425437 -0.0015,0.04053 -0.00165,0.0814 -0.0024,0.122704 -0.00255,0.153667 -0.00465,0.312291 -0.00585,0.476475 0,0.04174 0,0.08478 0,0.127202 -0.0015,0.172099 -0.0015,0.348085 0,0.531232 0,4.5e-4 0,4.5e-4 0,6e-4 0.0015,0.122871 0.0018,0.248144 0.0033,0.375951 0.0015,0.125678 0.0036,0.253909 0.00615,0.384327 0,0.01009 0,0.02045 0,0.03056 0.0024,0.120414 0.0051,0.242713 0.00841,0.367111 0,0.0154 0.0015,0.03108 0.0015,0.04653 0.00315,0.117581 0.00675,0.236871 0.010657,0.357958 0.0015,0.0243 0.00165,0.04878 0.0024,0.07322 0.00375,0.110459 0.00796,0.222597 0.012458,0.335924 0.0015,0.03512 0.0027,0.07025 0.0042,0.105643 0.0045,0.109114 0.00946,0.219794 0.014709,0.331509 0.00165,0.03522 0.00315,0.07015 0.00495,0.10564 0.00615,0.127289 0.012908,0.256295 0.019932,0.386887 0.0015,0.01753 0.0018,0.03469 0.0027,0.05228 0.00841,0.153548 0.017486,0.309198 0.027302,0.46724 0.00991,0.160345 0.020668,0.323091 0.032105,0.488033 0,0.0014 0,0.0027 0,0.0041 v 9.01e-4 l 0.478967,4.69407 c 0.034987,0.263349 0.071235,0.529186 0.1098993,0.799758 C 5.6493406,24.354323 16.201566,15.859515 29.526133,14.033628 40.312835,12.558665 49.802389,11.72606 56.087393,13.115505 43.179253,3.2877398 28.952832,1.8137683 28.928351,1.8112392 c -1.5e-5,0 -0.0024,0 -0.0024,0 z"
       style="fill:url(#linearGradient1887-3);fill-opacity:1;stroke:none;stroke-width:0.03971254px;stroke-linecap:butt;stroke-linejoin:miter;stroke-opacity:1" />
    <path
       inkscape:connector-curvature="0"
       id="path1748-4-1"
       d="M 45.634876,6.8403751 C 40.498412,6.9183343 34.47669,7.5731147 27.984676,8.460833 15.687342,10.145956 5.7564046,17.507732 1.6699276,20.612716 c 0.00525,0.09062 0.010207,0.180368 0.015895,0.272556 0.00991,0.160343 0.020668,0.323089 0.032105,0.488033 0,0.0014 1.5e-5,0.0027 0,0.0041 v 9.01e-4 l 0.478952,4.694062 c 0.034987,0.263349 0.07125,0.529186 0.1099144,0.799759 C 5.6493856,24.354178 16.201611,15.859396 29.526178,14.033508 40.312865,12.558543 49.802419,11.725935 56.087423,13.115391 52.597032,10.457934 49.010745,8.4122503 45.634411,6.8403436 Z"
       style="opacity:0.33200001;fill:#ffffff;fill-opacity:0.38116593;stroke:none;stroke-width:0.03971254px;stroke-linecap:butt;stroke-linejoin:miter;stroke-opacity:1" />
    <path
       inkscape:connector-curvature="0"
       id="path2193-0"
       d="M 2.3076348,26.87229 26.882662,18.068294 21.180356,16.056667 c 0,0 -9.10812,2.851992 -18.8727212,10.815623 z"
       style="fill:#033660;fill-opacity:1;stroke:none;stroke-width:0.03971254px;stroke-linecap:butt;stroke-linejoin:miter;stroke-opacity:1" />
    <path
       inkscape:connector-curvature="0"
       id="path2195-9"
       d="m 56.087828,13.115612 -21.475077,2.628769 -4.585017,-1.775915 c 0,0 18.170249,-2.913191 26.060094,-0.852854 z"
       style="fill:#7b1e0e;fill-opacity:1;stroke:none;stroke-width:0.03971254px;stroke-linecap:butt;stroke-linejoin:miter;stroke-opacity:1" />
    <path
       inkscape:connector-curvature="0"
       id="path2199-3"
       d="m 18.136917,56.725414 c 0,0 7.734827,-4.594861 11.55384,-11.502783 l 2.435526,0.747661 c 0,0 -2.657201,4.875758 -13.989366,10.755122"
       style="fill:#99301a;fill-opacity:1;stroke:none;stroke-width:0.03971254px;stroke-linecap:butt;stroke-linejoin:miter;stroke-opacity:1" />
    <path
       inkscape:connector-curvature="0"
       id="path2205-0"
       d="m 47.369385,48.739391 c 0,0 -5.828445,-4.640001 -11.556973,-7.813161 0,0 -0.73009,1.460216 -1.600609,2.499214 0,0 7.051597,1.417322 13.157582,5.313947 z"
       style="fill:#005f14;fill-opacity:1;stroke:none;stroke-width:0.03971254px;stroke-linecap:butt;stroke-linejoin:miter;stroke-opacity:1" />
    <path
       inkscape:connector-curvature="0"
       transform="matrix(0.16675516,0,0,0.16675516,-139.48952,129.7623)"
       id="path1641-3-3"
       d="m 1011.0757,-764.57968 c 0,0 -83.49631,8.60946 -159.2538,66.28847 0,0 -5.346,26.48621 2.78411,80.29781 l 18.78285,6.52518 c -7.7544,-49.18914 -2.77482,-73.10911 -2.77482,-73.10911 66.81809,-50.87286 140.46166,-58.46672 140.46166,-58.46672 0,0 73.6599,7.59386 140.4778,58.46672 0,0 2.1513,25.06922 0.2826,52.38054 l 17.1323,10.62932 c 4.806,-42.70066 1.3788,-76.72374 1.3788,-76.72374 -75.7577,-57.67901 -159.2715,-66.28847 -159.2715,-66.28847 z m 135.0126,169.66013 c -2.3481,15.1357 -3.907,18.94789 -8.9619,37.90343 0,0 -18.2232,77.44886 -126.0434,135.91468 -87.07361,-47.21624 -115.70774,-106.80377 -123.50515,-127.99009 l -21.13875,-11.26236 c 0.56221,2.20943 1.13766,4.43532 1.7389,6.69002 0,0 20.66144,87.80978 142.906,154.09756 122.2449,-66.28778 142.9065,-154.09756 142.9065,-154.09756 4.327,-16.22587 5.7176,-17.94314 8.2208,-31.73431 z m -279.82346,29.21045 c 1.07344,5.87317 2.29227,11.9756 3.67212,18.29811 z"
       style="opacity:0.43000004;fill:#ffffff;fill-opacity:1;stroke:none;stroke-width:0.42611405px;stroke-linecap:butt;stroke-linejoin:miter;stroke-opacity:1;filter:url(#filter3775)" />
  </g>
  <g
     inkscape:groupmode="layer"
     id="layer1"
     inkscape:label="Layer 1" />
</svg>
